<svg width="16" height="16" viewBox="0 0 16 16" fill="none" xmlns="http://www.w3.org/2000/svg">
<path d="M8 6C11.722 6 14 7.295 14 8C14 8.705 11.722 10 8 10C4.278 10 2 8.705 2 8C2 7.295 4.278 6 8 6ZM8 5C4.134 5 1 6.343 1 8C1 9.657 4.134 11 8 11C11.866 11 15 9.657 15 8C15 6.343 11.866 5 8 5Z" fill="#00BCD4"/>
<path d="M8 7C7.80222 7 7.60888 7.05865 7.44443 7.16853C7.27998 7.27841 7.15181 7.43459 7.07612 7.61732C7.00043 7.80004 6.98063 8.00111 7.01922 8.19509C7.0578 8.38907 7.15304 8.56725 7.29289 8.70711C7.43275 8.84696 7.61093 8.9422 7.80491 8.98079C7.99889 9.01937 8.19996 8.99957 8.38268 8.92388C8.56541 8.84819 8.72159 8.72002 8.83147 8.55557C8.94135 8.39112 9 8.19778 9 8C9 7.73478 8.89464 7.48043 8.70711 7.29289C8.51957 7.10536 8.26522 7 8 7Z" fill="#00BCD4"/>
<path d="M5.22882 2.75342C6.23732 2.75342 8.19732 4.34192 9.73182 6.99992C11.5928 10.2234 11.6103 12.8434 10.9998 13.1959C10.9294 13.2324 10.8506 13.2497 10.7713 13.2459C9.76282 13.2459 7.80232 11.6579 6.26782 8.99992C4.40682 5.77642 4.38932 3.15642 4.99982 2.80392C5.0704 2.76731 5.14941 2.74956 5.22882 2.75342ZM5.22832 1.75392C4.9735 1.74931 4.72205 1.81264 4.49982 1.93742C3.06482 2.76592 3.46882 6.15192 5.40182 9.49992C7.04382 12.3449 9.26182 14.2464 10.7718 14.2464C11.0266 14.2506 11.2778 14.187 11.4998 14.0619C12.9348 13.2339 12.5308 9.84792 10.5978 6.49992C8.95582 3.65492 6.73782 1.75342 5.22782 1.75342L5.22832 1.75392Z" fill="#00BCD4"/>
<path d="M10.7712 2.75338C10.8505 2.74961 10.9293 2.76686 10.9997 2.80338C11.6102 3.15638 11.5927 5.77638 9.73171 8.99988C8.19671 11.6579 6.23671 13.2464 5.22821 13.2464C5.14897 13.2501 5.07014 13.2329 4.99971 13.1964C4.38921 12.8429 4.40671 10.2229 6.26771 6.99988C7.80271 4.34188 9.76271 2.75338 10.7712 2.75338ZM10.7712 1.75338C9.26121 1.75338 7.04371 3.65538 5.40121 6.49988C3.46921 9.84788 3.06471 13.2339 4.49971 14.0619C4.72184 14.187 4.9733 14.2507 5.22821 14.2464C6.73821 14.2464 8.95571 12.3444 10.5982 9.49988C12.5302 6.15188 12.9347 2.76588 11.4997 1.93788C11.2776 1.81276 11.0261 1.74907 10.7712 1.75338Z" fill="#00BCD4"/>
</svg>
