<svg width="24" height="24" viewBox="0 0 24 24" fill="none" xmlns="http://www.w3.org/2000/svg">
<path d="M15.808 20C15.5787 20 15.3867 19.9227 15.232 19.768C15.0773 19.6133 15 19.4213 15 19.192V10.616C15 10.1713 14.8417 9.791 14.525 9.475C14.2083 9.159 13.8283 9.00067 13.385 9H10.308C10.0793 9 9.88733 8.92267 9.732 8.768C9.57667 8.61334 9.49933 8.42134 9.5 8.192V4.808C9.5 4.57934 9.57733 4.38734 9.732 4.232C9.88667 4.07667 10.0787 3.99934 10.308 4H19.192C19.4213 4 19.6133 4.07734 19.768 4.232C19.9227 4.38667 20 4.57867 20 4.808V19.192C20 19.4213 19.9227 19.6133 19.768 19.768C19.6133 19.9227 19.4213 20 19.192 20H15.808ZM10.308 20C10.0787 20 9.88667 19.9227 9.732 19.768C9.57733 19.6133 9.5 19.4213 9.5 19.192V10.808C9.5 10.5793 9.57733 10.3873 9.732 10.232C9.88667 10.0767 10.0787 9.99934 10.308 10H13.192C13.4213 10 13.6133 10.0773 13.768 10.232C13.9227 10.3867 14 10.5787 14 10.808V19.192C14 19.4213 13.9227 19.6133 13.768 19.768C13.6133 19.9227 13.4213 20 13.192 20H10.308ZM4.808 20C4.57867 20 4.38667 19.9227 4.232 19.768C4.07733 19.6133 4 19.4213 4 19.192V10.808C4 10.5793 4.07733 10.3873 4.232 10.232C4.38667 10.0767 4.57867 9.99934 4.808 10H7.692C7.92067 10 8.11267 10.0773 8.268 10.232C8.42333 10.3867 8.50067 10.5787 8.5 10.808V19.192C8.5 19.4213 8.42267 19.6133 8.268 19.768C8.11333 19.9227 7.92133 20 7.692 20H4.808Z" fill="black"/>
</svg>
