<svg width="16" height="16" viewBox="0 0 16 16" fill="none" xmlns="http://www.w3.org/2000/svg">
<g clip-path="url(#clip0_2055_10737)">
<path d="M12.25 0H3.75C1.67893 0 0 1.67893 0 3.75V12.25C0 14.3211 1.67893 16 3.75 16H12.25C14.3211 16 16 14.3211 16 12.25V3.75C16 1.67893 14.3211 0 12.25 0Z" fill="#4353FF"/>
<path d="M10.5691 6.46475C10.5691 6.46475 9.70562 9.16988 9.64181 9.39956C9.61631 9.17413 8.98681 4.3125 8.98681 4.3125C7.51513 4.3125 6.7325 5.35881 6.31563 6.46475C6.31563 6.46475 5.26506 9.17837 5.18 9.40381C5.17575 9.19112 5.01837 6.49025 5.01837 6.49025C4.929 5.13338 3.69125 4.3125 2.6875 4.3125L3.8955 11.6751C5.43519 11.6709 6.26463 10.6288 6.69844 9.51869C6.69844 9.51869 7.62144 7.124 7.65975 7.01769C7.66825 7.11975 8.32325 11.6751 8.32325 11.6751C9.86725 11.6751 10.7009 10.7011 11.1475 9.6335L13.3125 4.3125C11.7855 4.3125 10.9816 5.35456 10.5691 6.46475Z" fill="white"/>
</g>
<defs>
<clipPath id="clip0_2055_10737">
<rect width="16" height="16" fill="white"/>
</clipPath>
</defs>
</svg>
